<svg width="31" height="30" viewBox="0 0 31 30" fill="none" xmlns="http://www.w3.org/2000/svg">
<g clip-path="url(#clip0_2836_6380)">
<path d="M28.8443 30.0001C29.7586 30.0001 30.5 29.2588 30.5 28.3444V1.65574C30.5 0.741211 29.7586 0 28.8443 0H2.15574C1.24109 0 0.5 0.741211 0.5 1.65574V28.3444C0.5 29.2588 1.24109 30.0001 2.15574 30.0001H28.8443Z" fill="#BDBDBD"/>
<path d="M21.1994 30.0001V18.3825H25.0991L25.6829 13.855H21.1994V10.9642C21.1994 9.65333 21.5635 8.76001 23.4433 8.76001L25.8409 8.75896V4.70954C25.426 4.65435 24.0029 4.53107 22.3473 4.53107C18.8905 4.53107 16.524 6.64103 16.524 10.5159V13.855H12.6144V18.3825H16.524V30.0001H21.1994Z" fill="white"/>
</g>
<defs>
<clipPath id="clip0_2836_6380">
<rect width="30" height="30.0001" fill="white" transform="translate(0.5)"/>
</clipPath>
</defs>
</svg>
