<svg width="31" height="30" viewBox="0 0 31 30" fill="none" xmlns="http://www.w3.org/2000/svg">
<g clip-path="url(#clip0_2836_6385)">
<path d="M26.0784 25.4624H21.6507V18.5282C21.6507 16.8747 21.6211 14.7461 19.3478 14.7461C17.0416 14.7461 16.6888 16.5477 16.6888 18.4078V25.4619H12.2611V11.2024H16.5117V13.1512H16.5712C16.9966 12.4238 17.6113 11.8254 18.3498 11.4198C19.0884 11.0142 19.9231 10.8165 20.7651 10.8477C25.2529 10.8477 26.0803 13.7996 26.0803 17.6398L26.0784 25.4624ZM7.26502 9.25338C5.84591 9.25361 4.69529 8.10334 4.69505 6.68423C4.69482 5.26513 5.84498 4.11451 7.26408 4.11427C8.68319 4.11392 9.83381 5.26419 9.83404 6.6833C9.83417 7.36478 9.56357 8.0184 9.08179 8.50038C8.60001 8.98236 7.9465 9.25322 7.26502 9.25338ZM9.47894 25.4625H5.04653V11.2024H9.47883V25.4624L9.47894 25.4625ZM28.2858 0.00217493H2.82163C1.61813 -0.0113659 0.631163 0.952719 0.616455 2.15622V27.7266C0.630696 28.9307 1.61754 29.8957 2.82151 29.8831H28.2858C29.4923 29.898 30.483 28.933 30.4997 27.7266V2.15424C30.4826 0.9484 29.4917 -0.0155683 28.2858 0.000190493" fill="#BDBDBD"/>
</g>
<defs>
<clipPath id="clip0_2836_6385">
<rect width="30" height="29.8833" fill="white" transform="translate(0.5)"/>
</clipPath>
</defs>
</svg>
