<svg width="31" height="30" viewBox="0 0 31 30" fill="none" xmlns="http://www.w3.org/2000/svg">
<g clip-path="url(#clip0_2836_6383)">
<path d="M15.5 7.30875C11.2438 7.30875 7.80879 10.7437 7.80879 15C7.80879 19.2563 11.2438 22.6912 15.5 22.6912C19.7563 22.6912 23.1913 19.2563 23.1913 15C23.1913 10.7437 19.7563 7.30875 15.5 7.30875ZM15.5 19.9987C12.7475 19.9987 10.5013 17.7525 10.5013 15C10.5013 12.2475 12.7475 10.0012 15.5 10.0012C18.2525 10.0012 20.4988 12.2475 20.4988 15C20.4988 17.7525 18.2525 19.9987 15.5 19.9987ZM23.5063 5.20125C22.5126 5.20125 21.71 6.00375 21.71 6.9975C21.71 7.99125 22.5126 8.79375 23.5063 8.79375C24.5001 8.79375 25.3026 7.995 25.3026 6.9975C25.3029 6.76153 25.2566 6.52782 25.1664 6.30975C25.0763 6.09169 24.944 5.89355 24.7771 5.7267C24.6102 5.55984 24.4121 5.42754 24.194 5.33738C23.976 5.24721 23.7423 5.20095 23.5063 5.20125ZM30.4926 15C30.4926 12.93 30.5113 10.8787 30.3951 8.8125C30.2788 6.4125 29.7313 4.2825 27.9763 2.5275C26.2176 0.768747 24.0913 0.224997 21.6913 0.108747C19.6213 -0.00750281 17.57 0.0112473 15.5038 0.0112473C13.4338 0.0112473 11.3825 -0.00750281 9.31629 0.108747C6.91629 0.224997 4.78628 0.772497 3.03128 2.5275C1.27253 4.28625 0.728782 6.4125 0.612531 8.8125C0.496281 10.8825 0.515031 12.9337 0.515031 15C0.515031 17.0662 0.496281 19.1213 0.612531 21.1875C0.728782 23.5875 1.27628 25.7175 3.03128 27.4725C4.79004 29.2313 6.91629 29.775 9.31629 29.8913C11.3863 30.0075 13.4375 29.9888 15.5038 29.9888C17.5738 29.9888 19.625 30.0075 21.6913 29.8913C24.0913 29.775 26.2213 29.2275 27.9763 27.4725C29.7351 25.7137 30.2788 23.5875 30.3951 21.1875C30.5151 19.1213 30.4926 17.07 30.4926 15ZM27.1926 23.8425C26.9188 24.525 26.5888 25.035 26.0601 25.56C25.5313 26.0887 25.0251 26.4188 24.3426 26.6925C22.3701 27.4762 17.6863 27.3 15.5 27.3C13.3138 27.3 8.62629 27.4763 6.65379 26.6963C5.97129 26.4225 5.46129 26.0925 4.93629 25.5638C4.40753 25.035 4.07753 24.5288 3.80378 23.8463C3.02378 21.87 3.20003 17.1862 3.20003 15C3.20003 12.8137 3.02378 8.12625 3.80378 6.15375C4.07753 5.47125 4.40753 4.96125 4.93629 4.43625C5.46504 3.91125 5.97129 3.5775 6.65379 3.30375C8.62629 2.52375 13.3138 2.7 15.5 2.7C17.6863 2.7 22.3738 2.52375 24.3463 3.30375C25.0288 3.5775 25.5388 3.9075 26.0638 4.43625C26.5926 4.965 26.9226 5.47125 27.1963 6.15375C27.9763 8.12625 27.8001 12.8137 27.8001 15C27.8001 17.1862 27.9763 21.87 27.1926 23.8425Z" fill="#BDBDBD"/>
</g>
<defs>
<clipPath id="clip0_2836_6383">
<rect width="30" height="30" fill="white" transform="translate(0.5)"/>
</clipPath>
</defs>
</svg>
