<svg width="31" height="25" viewBox="0 0 31 25" fill="none" xmlns="http://www.w3.org/2000/svg">
<g clip-path="url(#clip0_2836_6378)">
<path d="M30.5 2.98241C29.3766 3.48007 28.185 3.80674 26.9649 3.95155C28.2358 3.18983 29.2116 1.98362 29.6711 0.546431C28.463 1.26337 27.1412 1.76849 25.7628 2.03998C24.64 0.843852 23.0405 0.0963135 21.2702 0.0963135C17.8711 0.0963135 15.1152 2.85209 15.1152 6.251C15.1152 6.73346 15.1696 7.20315 15.2745 7.65373C10.1593 7.39698 5.62414 4.9467 2.5884 1.22295C2.05871 2.13198 1.7552 3.18936 1.7552 4.31717C1.7552 6.45256 2.84188 8.33635 4.49328 9.44014C3.51588 9.40953 2.55998 9.14554 1.70539 8.67022C1.70504 8.696 1.70504 8.72178 1.70504 8.74768C1.70504 11.7297 3.8266 14.2174 6.64215 14.7828C5.7358 15.0293 4.78511 15.0654 3.8627 14.8883C4.64586 17.3335 6.91895 19.1129 9.61215 19.1627C7.5057 20.8134 4.85176 21.7974 1.96824 21.7974C1.47137 21.7974 0.981523 21.7683 0.5 21.7114C3.22379 23.4578 6.45898 24.4767 9.93477 24.4767C21.2559 24.4767 27.4466 15.0981 27.4466 6.96479C27.4466 6.69784 27.4407 6.43241 27.4288 6.1685C28.6337 5.29743 29.6737 4.21852 30.5 2.98241Z" fill="#BDBDBD"/>
</g>
<defs>
<clipPath id="clip0_2836_6378">
<rect width="30" height="24.4922" fill="white" transform="translate(0.5)"/>
</clipPath>
</defs>
</svg>
